<svg width="30" height="30" viewBox="0 0 30 30" fill="none" xmlns="http://www.w3.org/2000/svg">
<path d="M30 22.3667V28.2602C30 29.1352 29.3235 29.8612 28.4508 29.9228C27.7218 29.9743 27.1272 30 26.6667 30C11.939 30 0 18.061 0 3.33333C0 2.87285 0.02575 2.27812 0.07725 1.54917C0.13895 0.676467 0.8649 0 1.73977 0H7.6335C8.0613 0 8.4196 0.324033 8.46255 0.749667C8.50112 1.13178 8.53697 1.43857 8.57012 1.67003C8.90725 4.02453 9.59588 6.2656 10.5812 8.33838C10.7393 8.67108 10.6362 9.06932 10.3364 9.28343L6.73925 11.853C8.9292 16.9685 13.0315 21.0708 18.147 23.2608L20.7118 19.6698C20.9287 19.3665 21.3317 19.2622 21.6683 19.422C23.741 20.4065 25.9818 21.0943 28.336 21.4307C28.566 21.4637 28.8708 21.4992 29.2503 21.5375C29.676 21.5805 30 21.9388 30 22.3667Z" fill="white"/>
</svg>
