<svg width="256" height="145" viewBox="0 0 256 145" fill="none" xmlns="http://www.w3.org/2000/svg">
<path d="M61.6 144.8C48.8 144.8 37.8 141.734 28.6 135.6C19.4 129.467 12.3333 121 7.4 110.2C2.46667 99.2671 3.57628e-07 86.6671 3.57628e-07 72.4004C3.57628e-07 58.1337 2.46667 45.6004 7.4 34.8004C12.3333 23.8671 19.4 15.3337 28.6 9.20039C37.8 3.06706 48.8 0.000388145 61.6 0.000388145C74.4 0.000388145 85.3333 3.06706 94.4 9.20039C103.6 15.3337 110.667 23.8671 115.6 34.8004C120.533 45.6004 123 58.1337 123 72.4004C123 86.6671 120.533 99.2671 115.6 110.2C110.667 121 103.6 129.467 94.4 135.6C85.3333 141.734 74.4 144.8 61.6 144.8ZM61.6 119.6C68.1333 119.6 73.8667 117.667 78.8 113.8C83.7333 109.934 87.6 104.534 90.4 97.6004C93.2 90.5337 94.6 82.1337 94.6 72.4004C94.6 62.6671 93.2 54.3337 90.4 47.4004C87.6 40.3337 83.7333 34.8671 78.8 31.0004C73.8667 27.1337 68.1333 25.2004 61.6 25.2004C55.0667 25.2004 49.3333 27.1337 44.4 31.0004C39.4667 34.8671 35.6 40.3337 32.8 47.4004C30 54.3337 28.6 62.6671 28.6 72.4004C28.6 82.1337 30 90.5337 32.8 97.6004C35.6 104.534 39.4667 109.934 44.4 113.8C49.3333 117.667 55.0667 119.6 61.6 119.6ZM210.011 142.4V117.6H141.411V95.2004L206.411 2.40038H238.011V93.2004H255.811V117.6H238.011V142.4H210.011ZM171.211 93.2004H211.811V33.2004L171.211 93.2004Z" fill="url(#paint0_linear_1345_3606)"/>
<defs>
<linearGradient id="paint0_linear_1345_3606" x1="130" y1="-55.5996" x2="130" y2="184.4" gradientUnits="userSpaceOnUse">
<stop stop-color="#DBDBDB"/>
<stop offset="1" stop-color="#7F7F7F"/>
</linearGradient>
</defs>
</svg>
