<svg width="242" height="145" viewBox="0 0 242 145" fill="none" xmlns="http://www.w3.org/2000/svg">
<path d="M61.6 144.8C48.8 144.8 37.8 141.734 28.6 135.6C19.4 129.467 12.3333 121 7.4 110.2C2.46667 99.2671 3.57628e-07 86.6671 3.57628e-07 72.4004C3.57628e-07 58.1337 2.46667 45.6004 7.4 34.8004C12.3333 23.8671 19.4 15.3337 28.6 9.20039C37.8 3.06706 48.8 0.000388145 61.6 0.000388145C74.4 0.000388145 85.3333 3.06706 94.4 9.20039C103.6 15.3337 110.667 23.8671 115.6 34.8004C120.533 45.6004 123 58.1337 123 72.4004C123 86.6671 120.533 99.2671 115.6 110.2C110.667 121 103.6 129.467 94.4 135.6C85.3333 141.734 74.4 144.8 61.6 144.8ZM61.6 119.6C68.1333 119.6 73.8667 117.667 78.8 113.8C83.7333 109.934 87.6 104.534 90.4 97.6004C93.2 90.5337 94.6 82.1337 94.6 72.4004C94.6 62.6671 93.2 54.3337 90.4 47.4004C87.6 40.3337 83.7333 34.8671 78.8 31.0004C73.8667 27.1337 68.1333 25.2004 61.6 25.2004C55.0667 25.2004 49.3333 27.1337 44.4 31.0004C39.4667 34.8671 35.6 40.3337 32.8 47.4004C30 54.3337 28.6 62.6671 28.6 72.4004C28.6 82.1337 30 90.5337 32.8 97.6004C35.6 104.534 39.4667 109.934 44.4 113.8C49.3333 117.667 55.0667 119.6 61.6 119.6ZM192.211 144.8C183.144 144.8 174.811 143.134 167.211 139.8C159.611 136.467 153.478 131.4 148.811 124.6C144.278 117.8 141.878 109.134 141.611 98.6004H169.211C169.211 102.867 170.144 106.734 172.011 110.2C173.878 113.667 176.544 116.4 180.011 118.4C183.478 120.4 187.611 121.4 192.411 121.4C196.944 121.4 200.811 120.534 204.011 118.8C207.211 116.934 209.611 114.534 211.211 111.6C212.811 108.534 213.611 105.067 213.611 101.2C213.611 96.8004 212.478 93.1337 210.211 90.2004C208.078 87.1337 205.011 84.8004 201.011 83.2004C197.144 81.6004 192.611 80.8004 187.411 80.8004H177.011V57.8004H187.411C193.811 57.8004 199.211 56.3337 203.611 53.4004C208.011 50.4671 210.211 45.9337 210.211 39.8004C210.211 34.8671 208.544 30.9337 205.211 28.0004C202.011 25.067 197.678 23.6004 192.211 23.6004C185.811 23.6004 180.878 25.467 177.411 29.2004C173.944 32.8004 172.011 37.2671 171.611 42.6004H144.411C144.811 33.6671 147.011 26.0004 151.011 19.6004C155.144 13.2004 160.744 8.33371 167.811 5.00038C174.878 1.66705 183.011 0.000388145 192.211 0.000388145C201.944 0.000388145 210.211 1.73372 217.011 5.20038C223.811 8.53372 228.944 13.0671 232.411 18.8004C235.878 24.5337 237.611 30.8004 237.611 37.6004C237.611 43.2004 236.544 48.1337 234.411 52.4004C232.411 56.5337 229.678 60.0004 226.211 62.8004C222.744 65.6004 219.011 67.6004 215.011 68.8004C220.211 69.8671 224.744 71.9337 228.611 75.0004C232.478 77.9337 235.478 81.7337 237.611 86.4004C239.878 91.0671 241.011 96.4004 241.011 102.4C241.011 110 239.144 117.067 235.411 123.6C231.678 130 226.144 135.134 218.811 139C211.611 142.867 202.744 144.8 192.211 144.8Z" fill="url(#paint0_linear_1345_3610)"/>
<defs>
<linearGradient id="paint0_linear_1345_3610" x1="130" y1="-55.5996" x2="130" y2="184.4" gradientUnits="userSpaceOnUse">
<stop stop-color="#DBDBDB"/>
<stop offset="1" stop-color="#7F7F7F"/>
</linearGradient>
</defs>
</svg>
