<svg width="240" height="145" viewBox="0 0 240 145" fill="none" xmlns="http://www.w3.org/2000/svg">
<path d="M61.6 144.8C48.8 144.8 37.8 141.734 28.6 135.6C19.4 129.467 12.3333 121 7.4 110.2C2.46667 99.2671 3.57628e-07 86.6671 3.57628e-07 72.4004C3.57628e-07 58.1337 2.46667 45.6004 7.4 34.8004C12.3333 23.8671 19.4 15.3337 28.6 9.20039C37.8 3.06706 48.8 0.000388145 61.6 0.000388145C74.4 0.000388145 85.3333 3.06706 94.4 9.20039C103.6 15.3337 110.667 23.8671 115.6 34.8004C120.533 45.6004 123 58.1337 123 72.4004C123 86.6671 120.533 99.2671 115.6 110.2C110.667 121 103.6 129.467 94.4 135.6C85.3333 141.734 74.4 144.8 61.6 144.8ZM61.6 119.6C68.1333 119.6 73.8667 117.667 78.8 113.8C83.7333 109.934 87.6 104.534 90.4 97.6004C93.2 90.5337 94.6 82.1337 94.6 72.4004C94.6 62.6671 93.2 54.3337 90.4 47.4004C87.6 40.3337 83.7333 34.8671 78.8 31.0004C73.8667 27.1337 68.1333 25.2004 61.6 25.2004C55.0667 25.2004 49.3333 27.1337 44.4 31.0004C39.4667 34.8671 35.6 40.3337 32.8 47.4004C30 54.3337 28.6 62.6671 28.6 72.4004C28.6 82.1337 30 90.5337 32.8 97.6004C35.6 104.534 39.4667 109.934 44.4 113.8C49.3333 117.667 55.0667 119.6 61.6 119.6ZM141.425 142.4V121.8C149.825 115 158.025 108.267 166.025 101.6C174.025 94.8004 181.225 88.1337 187.625 81.6004C194.025 74.9337 199.092 68.4671 202.825 62.2004C206.558 55.8004 208.425 49.6004 208.425 43.6004C208.425 40.1337 207.758 36.867 206.425 33.8004C205.092 30.7337 203.025 28.267 200.225 26.4004C197.425 24.5337 193.758 23.6004 189.225 23.6004C184.825 23.6004 181.025 24.6671 177.825 26.8004C174.758 28.8004 172.425 31.5337 170.825 35.0004C169.358 38.4671 168.625 42.4004 168.625 46.8004H141.625C141.892 36.2671 144.158 27.5337 148.425 20.6004C152.825 13.6671 158.625 8.53372 165.825 5.20038C173.158 1.73372 181.292 0.000388145 190.225 0.000388145C200.225 0.000388145 208.625 1.86705 215.425 5.60039C222.358 9.20039 227.558 14.2004 231.025 20.6004C234.625 26.8671 236.425 34.0004 236.425 42.0004C236.425 48.1337 235.292 54.1337 233.025 60.0004C230.892 65.7337 227.892 71.3337 224.025 76.8004C220.158 82.2671 215.758 87.5337 210.825 92.6004C206.025 97.5337 200.958 102.267 195.625 106.8C190.425 111.334 185.292 115.6 180.225 119.6H239.625V142.4H141.425Z" fill="url(#paint0_linear_1345_3602)"/>
<defs>
<linearGradient id="paint0_linear_1345_3602" x1="130" y1="-55.5996" x2="130" y2="184.4" gradientUnits="userSpaceOnUse">
<stop stop-color="#DBDBDB"/>
<stop offset="1" stop-color="#7F7F7F"/>
</linearGradient>
</defs>
</svg>
