<svg width="80" height="80" viewBox="0 0 80 80" fill="none" xmlns="http://www.w3.org/2000/svg">
<path d="M72.8051 13.1798H75.7895C78.115 13.1798 80 15.0752 80 17.4133V47.0477C80 49.3858 78.115 51.2812 75.7895 51.2812H67.3686L49.818 26.576C47.7237 23.6282 43.9966 22.3465 40.5457 23.3874L30.0815 26.5439C27.1143 27.4389 23.8979 26.6236 21.7073 24.421L20.4746 23.1816C18.5958 21.2926 18.9055 18.1475 21.1163 16.6656L43.8572 1.42203C46.6319 -0.437703 50.2361 -0.476271 53.0495 1.32373L70.5449 12.518C71.2203 12.9502 72.0047 13.1798 72.8051 13.1798ZM12.7455 48.2957L5.94234 54.281C3.95747 56.0269 4.03975 59.1572 6.11366 60.796L27.7587 77.8955C29.7801 79.4924 32.7404 78.9111 34.0156 76.6669L36.9794 71.4521C38.7899 68.2664 38.3537 64.2708 35.899 61.5559L24.5217 48.9722C21.4352 45.5583 16.1987 45.2577 12.7455 48.2957ZM21.2443 8.94657H4.21048C1.88512 8.94657 0 10.842 0 13.1801V44.9982C0 46.7272 0.525257 48.3914 1.47447 49.7846C1.57514 49.6889 1.67813 49.5945 1.78343 49.5018L8.58656 43.5165C14.6296 38.2001 23.7936 38.7263 29.195 44.7006L40.5726 57.2843C44.8682 62.0351 45.6315 69.0276 42.4631 74.6027L39.7082 79.4505C42.0783 80.3535 44.7785 80.1498 47.0269 78.7934L65.5917 67.5937C67.6987 66.3224 68.2797 63.5147 66.8523 61.5038L44.677 30.2669C44.1532 29.5301 43.2214 29.2096 42.3587 29.4699L31.8946 32.6262C26.7019 34.1926 21.0731 32.7659 17.2397 28.9113L16.0069 27.6719C11.31 22.9493 12.0843 15.0866 17.6112 11.3819L21.2443 8.94657Z" fill="black"/>
</svg>
