<svg width="80" height="80" viewBox="0 0 80 80" fill="none" xmlns="http://www.w3.org/2000/svg">
<path d="M15.7113 23.7604L14.8894 25.646C14.2879 27.0264 12.3786 27.0264 11.7771 25.646L10.9552 23.7604C9.4902 20.3982 6.8515 17.7214 3.5589 16.2569L1.02682 15.1307C-0.342274 14.5218 -0.342274 12.5294 1.02682 11.9204L3.41733 10.8571C6.7946 9.35503 9.48057 6.5791 10.9204 3.10276L11.7644 1.06511C12.3526 -0.355037 14.3139 -0.355037 14.9021 1.06511L15.7461 3.10276C17.1859 6.5791 19.8719 9.35503 23.2493 10.8571L25.6396 11.9204C27.009 12.5294 27.009 14.5218 25.6396 15.1307L23.1076 16.2569C19.815 17.7214 17.1763 20.3982 15.7113 23.7604ZM10.212 72.044C13.6285 51.4067 21.0368 6.65527 70 6.65527C65.014 16.6553 61.6667 21.6553 58.3333 24.9886L55 28.3219L60 31.6553C56.6667 41.6553 46.6667 53.322 33.3333 54.9887C24.4382 56.1003 18.8807 62.2117 16.6608 73.322H10C10.0691 72.9073 10.1397 72.481 10.212 72.044Z" fill="black"/>
</svg>
