<svg width="72" height="76" viewBox="0 0 72 76" fill="none" xmlns="http://www.w3.org/2000/svg">
<path d="M27.9598 0.798899C32.9608 -0.247951 38.1849 -0.280988 43.3007 0.788586C43.9644 5.1369 46.5253 9.1551 50.6312 11.5255C54.7367 13.8959 59.4973 14.1048 63.5946 12.5053C67.0791 16.4011 69.6624 20.9418 71.2562 25.7961C67.8268 28.5451 65.6312 32.7691 65.6312 37.5061C65.6312 42.2461 67.8294 46.4724 71.2622 49.2211C70.4698 51.6227 69.4213 53.9799 68.1069 56.2561C66.7926 58.5328 65.2757 60.6193 63.5919 62.5063C59.4951 60.9076 54.7359 61.1173 50.6312 63.4869C46.5287 65.8554 43.9686 69.8694 43.3022 74.2138C38.3016 75.2604 33.0774 75.2934 27.9614 74.2239C27.2979 69.8758 24.7367 65.8573 20.6311 63.4869C16.5255 61.1165 11.765 60.9076 7.66751 62.5074C4.1832 58.6115 1.59979 54.0706 0.00596255 49.2163C3.43526 46.4675 5.63111 42.2431 5.63111 37.5061C5.63111 32.7665 3.43271 28.5402 0 25.7913C0.7923 23.3897 1.84084 21.0327 3.15514 18.7563C4.46948 16.4798 5.98642 14.3932 7.6701 12.5063C11.767 14.1047 16.5263 13.8954 20.6311 11.5255C24.7335 9.15697 27.2938 5.14327 27.9598 0.798899ZM35.6312 48.7561C41.8442 48.7561 46.8812 43.7195 46.8812 37.5061C46.8812 31.2931 41.8442 26.2563 35.6312 26.2563C29.4178 26.2563 24.3811 31.2931 24.3811 37.5061C24.3811 43.7195 29.4178 48.7561 35.6312 48.7561Z" fill="black"/>
</svg>
