<svg width="38" height="38" viewBox="0 0 38 38" fill="none" xmlns="http://www.w3.org/2000/svg">
<path d="M20.6276 3.16797C22.4095 3.17091 23.3124 3.18035 24.0927 3.20358L24.4 3.21362C24.755 3.22624 25.1052 3.24207 25.5275 3.26186C27.2123 3.33971 28.3617 3.60624 29.3711 3.99811C30.4146 4.40055 31.2961 4.94415 32.1761 5.82423C33.0548 6.7043 33.5986 7.58832 34.0023 8.62936C34.3928 9.63742 34.6594 10.788 34.7386 12.4729C34.7574 12.8951 34.7726 13.2454 34.7851 13.6004L34.7951 13.9077C34.8182 14.6879 34.8288 15.591 34.8321 17.373L34.8334 18.5535C34.8336 18.6977 34.8336 18.8466 34.8336 19.0001L34.8334 19.4468L34.8324 20.6275C34.8294 22.4094 34.8201 23.3125 34.7968 24.0926L34.7867 24.3999C34.7742 24.7551 34.7584 25.1053 34.7386 25.5274C34.6607 27.2124 34.3928 28.3616 34.0023 29.371C33.5998 30.4147 33.0548 31.2962 32.1761 32.1762C31.2961 33.0549 30.4107 33.5985 29.3711 34.0022C28.3617 34.3928 27.2123 34.6593 25.5275 34.7385C25.1052 34.7573 24.755 34.7727 24.4 34.785L24.0927 34.795C23.3124 34.8183 22.4095 34.8287 20.6276 34.8322L19.4469 34.8335C19.3026 34.8335 19.1538 34.8335 19.0002 34.8335H18.5536L17.3729 34.8324C15.591 34.8295 14.6879 34.82 13.9077 34.7967L13.6004 34.7868C13.2453 34.7741 12.8951 34.7583 12.4729 34.7385C10.788 34.6607 9.64005 34.3928 8.62936 34.0022C7.58699 33.5999 6.70428 33.0549 5.82422 32.1762C4.94415 31.2962 4.40186 30.4108 3.99811 29.371C3.60624 28.3616 3.34103 27.2124 3.26186 25.5274C3.24305 25.1053 3.22771 24.7551 3.21528 24.3999L3.20532 24.0926C3.18216 23.3125 3.17159 22.4094 3.16817 20.6275L3.16797 17.373C3.17091 15.591 3.18033 14.6879 3.20356 13.9077L3.21362 13.6004C3.22624 13.2454 3.24207 12.8951 3.26186 12.4729C3.3397 10.7867 3.60624 9.63874 3.99811 8.62936C4.40053 7.587 4.94415 6.7043 5.82422 5.82423C6.70428 4.94415 7.58832 4.40186 8.62936 3.99811C9.63874 3.60624 10.7867 3.34103 12.4729 3.26186C12.8951 3.24307 13.2453 3.22772 13.6004 3.21529L13.9077 3.20534C14.6879 3.18216 15.591 3.17159 17.3729 3.16817L20.6276 3.16797ZM19.0002 11.0835C14.6256 11.0835 11.0835 14.6294 11.0835 19.0001C11.0835 23.3747 14.6295 26.9168 19.0002 26.9168C23.3748 26.9168 26.9169 23.3709 26.9169 19.0001C26.9169 14.6256 23.3709 11.0835 19.0002 11.0835ZM19.0002 14.2502C21.6237 14.2502 23.7502 16.3761 23.7502 19.0001C23.7502 21.6236 21.6243 23.7501 19.0002 23.7501C16.3768 23.7501 14.2502 21.6244 14.2502 19.0001C14.2502 16.3767 16.376 14.2502 19.0002 14.2502ZM27.3127 8.70853C26.2213 8.70853 25.3336 9.59505 25.3336 10.6863C25.3336 11.7777 26.2201 12.6655 27.3127 12.6655C28.404 12.6655 29.2919 11.779 29.2919 10.6863C29.2919 9.59505 28.4025 8.70717 27.3127 8.70853Z" fill="black"/>
</svg>
