<svg width="40" height="40" viewBox="0 0 40 40" fill="none" xmlns="http://www.w3.org/2000/svg">
<path d="M11.5671 8.33289C11.5665 9.69007 10.7431 10.9114 9.48524 11.4209C8.22734 11.9304 6.78612 11.6264 5.84117 10.6523C4.89622 9.67807 4.63626 8.22826 5.18384 6.98646C5.73144 5.74466 6.97724 4.95884 8.33381 4.99956C10.1356 5.05364 11.568 6.53029 11.5671 8.33289ZM11.6671 14.1329H5.00047V34.9995H11.6671V14.1329ZM22.2005 14.1329H15.5671V34.9995H22.1338V24.0495C22.1338 17.9495 30.0838 17.3828 30.0838 24.0495V34.9995H36.6672V21.7828C36.6672 11.4996 24.9005 11.8829 22.1338 16.9328L22.2005 14.1329Z" fill="black"/>
</svg>
