<svg width="38" height="38" viewBox="0 0 38 38" fill="none" xmlns="http://www.w3.org/2000/svg">
<path d="M25.3333 13.0545V24.541C25.3333 30.225 20.7257 34.8327 15.0417 34.8327C9.35774 34.8327 4.75 30.225 4.75 24.541C4.75 18.857 9.35774 14.2493 15.0417 14.2493C15.8591 14.2493 16.6543 14.3446 17.4167 14.5247V19.5326C16.6969 19.1906 15.8916 18.9993 15.0417 18.9993C11.9811 18.9993 9.5 21.4804 9.5 24.541C9.5 27.6016 11.9811 30.0827 15.0417 30.0827C18.1023 30.0827 20.5833 27.6016 20.5833 24.541V3.16602H25.3333C25.3333 7.53826 28.8778 11.0827 33.25 11.0827V15.8327C30.2545 15.8327 27.5019 14.7929 25.3333 13.0545Z" fill="black"/>
</svg>
